<svg version="1.1" xmlns="http://www.w3.org/2000/svg" xmlns:xlink="http://www.w3.org/1999/xlink" preserveAspectRatio="xMidYMid meet" viewBox="702 273 473 121"><g data-item-type="text" data-item="Business" id="logo__item--business" class="logo__item">
                <g class="logo__item__inner" transform="translate(837.4083404541016 343.7631610490012) scale(1 1) rotate(0 0 0)">
                    <text data-part-id="logo__item--business" dy="0" dominant-baseline="auto" alignment-baseline="auto" font-family="Montserrat" font-size="32px" fill="#7452c5" letter-spacing="0" font-weight="bold" font-style="normal" data-font-family="Montserrat" data-font-weight="bold" data-font-style="normal" data-ttf-url="/builder_assets/fontsttf/font-montserrat-bold-normal.ttf">Biblioteca alejandría</text>
                </g>
            </g><g data-item-type="image" data-item="Image" data-logo-item="" id="logo__item--logo_0" class="logo__item">
    <g class="logo__item__inner" transform="translate(700.9201330217082 269.5) scale(0.06475984036130172 0.06475984036130172) rotate(0 0 0)">
        
<g>
	<path fill="none" d="M1302,863.1V821h-9.9c-162.1,0-246.7,31.2-290.5,57.7c-21.7-2.4-44.6-3.2-65.9,0.7   C893.1,852.3,808.3,821,641.4,821H636v42c-14-0.3-27,0-38,0h-32v513h32c278,0,334.8,55,342.9,69H993c8.8-14,66.7-69,342.5-69h21.5   V863h-21.5C1324.5,863,1315,862.8,1302,863.1z M929.5,1337.1c-45-24.6-127.5-48.4-266.5-50.3V856.9c125,1.6,194.5,20.2,235.8,39.1   c-11.2,4.9-20.9,10.9-28.2,18C904.1,1038.3,938.5,1180,929.5,1337.1z M1274,1286.8c-125,1.6-202.4,20.1-249.9,41.2   c-8-151.3,22.1-294.8,59.8-407.9c-8.6-12.2-22.6-21.3-39-27.7c42.5-17.6,118.1-33.9,229.1-35.5V1286.8z" data-part-id="logo__item--logo_0__0"></path>
	<path fill="none" d="M908.4,854.4c-22.4-46.7-10.4-73.5,6.7-98.7c18.9-27.6,23.8-55,23.8-55s14.9,19.3,8.9,49.5   c26.2-29.2,31.1-75.8,27.2-93.6c59.3,41.4,84.7,131.2,50.5,197.7c181.7-102.8,45.2-256.6,21.4-274c8,17.3,9.4,46.7-6.6,60.9   c-27.1-102.7-94.1-123.7-94.1-123.7c7.9,53-28.7,110.9-64,154.2c-1.2-21.1-2.6-35.7-13.6-55.9c-2.5,38.3-31.9,69.6-39.8,108.1   C818.1,776,837,814.1,908.4,854.4z" data-part-id="logo__item--logo_0__1"></path>
	<path fill="none" d="M993.4,252.1c-414.2,0-751.2,337-751.2,751.2c0,414.2,337,751.1,751.2,751.1c414.2,0,751.2-336.9,751.2-751.1   C1744.6,589.1,1407.6,252.1,993.4,252.1z M1641.6,903c4-43.7,35.5-76.5,35.5-76.5s24.9,38.1,20.9,81.8c-4,43.7-35.4,76.5-35.4,76.5   S1637.6,946.7,1641.6,903z M1569.5,939.1c-22.8-37.3-17.3-82.7-17.3-82.7s42.6,15.1,65.4,52.4c22.8,37.3,17.3,82.7,17.3,82.7   S1592.3,976.4,1569.5,939.1z M1604.7,1188.9c0,0-34.8-29.1-43.5-72.1c-8.6-43,12.1-83.6,12.1-83.6s34.8,29.1,43.5,72.1   C1625.3,1148.3,1604.7,1188.9,1604.7,1188.9z M1556.5,1312.4c-2.4,43.9-32.7,77.8-32.7,77.8s-26.3-37.2-23.9-81   c2.4-43.8,32.7-77.8,32.7-77.8S1558.9,1268.6,1556.5,1312.4z M1587.5,624.2c0,0,33.5,30.6,40.3,74c6.8,43.4-15.6,83-15.6,83   s-33.5-30.7-40.3-74C1565,663.8,1587.5,624.2,1587.5,624.2z M1549.9,718.8c31.3,30.4,37,75.8,37,75.8s-44.9-3.9-76.1-34.3   c-31.2-30.3-37-75.7-37-75.7S1518.7,688.4,1549.9,718.8z M1447.3,471.4c0,0,41.1,18.6,61,57.6c19.7,39.1,10.6,83.9,10.6,83.9   s-41.2-18.5-61-57.6C1438.1,516.2,1447.3,471.4,1447.3,471.4z M1440.7,573.2c39,19,58.4,60.3,58.4,60.3s-43.9,10.5-82.9-8.6   c-39-19-58.4-60.3-58.4-60.3S1401.6,554.2,1440.7,573.2z M1286.6,367.2c0,0,43.5,12.1,68.7,47.8c25.3,35.6,22.8,81.3,22.8,81.3   s-43.5-12.2-68.7-47.8C1284,412.8,1286.6,367.2,1286.6,367.2z M1294.9,468.8c41.4,12.9,66.6,50.9,66.6,50.9s-41.8,16.9-83.2,4   c-41.4-13-66.6-50.9-66.6-50.9S1253.5,455.9,1294.9,468.8z M1196.7,356.9c37,22.8,52.4,65.7,52.4,65.7s-44.6,6.1-81.7-16.6   c-37.1-22.7-52.4-65.7-52.4-65.7S1159.7,334.1,1196.7,356.9z M777,347.4c37.1-22.9,81.7-16.7,81.7-16.7s-15.4,43.3-52.4,66.2   c-37.1,22.9-81.8,16.8-81.8,16.8S740,370.3,777,347.4z M762.1,464.2c0,0-25.3,38.2-66.6,51.2c-41.3,13-83.3-4-83.3-4   s25.2-38.2,66.6-51.3C720.1,447.1,762.1,464.2,762.1,464.2z M618.4,405.9c25.3-35.9,68.7-48.1,68.7-48.1s2.5,46-22.7,81.9   c-25.3,35.9-68.8,48.1-68.8,48.1S593.2,441.8,618.4,405.9z M615.9,556.6c0,0-19.3,41.6-58.3,60.7c-39,19.1-82.9,8.6-82.9,8.6   s19.4-41.5,58.4-60.7C572.1,546.1,615.9,556.6,615.9,556.6z M465.5,520.7c19.7-39.4,61-58,61-58s9.1,45.1-10.7,84.4   c-19.8,39.4-61,58.1-61,58.1S445.7,560.1,465.5,520.7z M499.9,677.3c0,0-5.7,45.7-37,76.3c-31.3,30.7-76.1,34.6-76.1,34.6   s5.7-45.7,36.9-76.3C455,681.3,499.9,677.3,499.9,677.3z M346,691.1c6.8-43.6,40.2-74.5,40.2-74.5s22.5,39.9,15.7,83.6   c-6.8,43.7-40.3,74.6-40.3,74.6S339.2,734.8,346,691.1z M356.2,903.2c22.9-37.5,65.4-52.8,65.4-52.8s5.5,45.8-17.3,83.3   c-22.8,37.6-65.4,52.8-65.4,52.8S333.3,940.8,356.2,903.2z M412.5,1112.7c-8.7,43.3-43.4,72.6-43.4,72.6s-20.8-40.9-12.1-84.2   c8.6-43.4,43.4-72.7,43.4-72.7S421.2,1069.3,412.5,1112.7z M296.7,820.4c0,0,31.4,33,35.5,77c4,44-21,82.4-21,82.4   s-31.4-33.1-35.4-77.1C271.7,858.7,296.7,820.4,296.7,820.4z M281.5,1129.2c-18.8-39.9-8.4-84.7-8.4-84.7s40.7,19.8,59.4,59.7   c18.7,39.9,8.4,84.7,8.4,84.7S300.2,1169,281.5,1129.2z M351.1,1356.5c-28-33.7-29.2-79.7-29.2-79.7s44.3,8.6,72.4,42.2   c28,33.8,29.2,79.8,29.2,79.8S379.2,1390.2,351.1,1356.5z M441,1228.1c0,0,30.3,34.2,32.7,78.3c2.4,44.2-23.8,81.6-23.8,81.6   s-30.2-34.2-32.7-78.4C414.7,1265.5,441,1228.1,441,1228.1z M503.7,1533.7c-39.5-18.1-59.9-59.2-59.9-59.2s43.6-11.7,83.1,6.4   c39.5,18.2,59.9,59.2,59.9,59.2S543.2,1551.8,503.7,1533.7z M606.2,1518.8c0,0-41.7-17.6-62.5-56.4c-20.7-38.8-12.7-84.1-12.7-84.1   s41.7,17.6,62.4,56.4C614.1,1473.5,606.2,1518.8,606.2,1518.8z M700.8,1646.2c-43.3-1.9-77-32.3-77-32.3s36.3-27.4,79.5-25.5   c43.3,1.9,77.1,32.3,77.1,32.3S744.1,1648.1,700.8,1646.2z M712.1,1564.8c-33.3-28.1-42.3-73.3-42.3-73.3s45.1,0.6,78.4,28.8   c33.4,28.2,42.4,73.3,42.4,73.3S745.5,1593,712.1,1564.8z M901,1697.6c-42.5,8.7-82.4-12.8-82.4-12.8s28.9-35.3,71.4-43.9   c42.5-8.6,82.4,12.8,82.4,12.8S943.4,1689.1,901,1697.6z M893.2,1615.9c-38.9-19.4-58.1-61-58.1-61s44-10.3,82.9,9   c39,19.3,58.1,61.1,58.1,61.1S932.1,1635.3,893.2,1615.9z M976.4,1559.3c-307.8,0-557.3-249.5-557.3-557.3   c0-307.8,249.5-557.3,557.3-557.3c307.7,0,557.2,249.5,557.2,557.3C1533.7,1309.8,1284.1,1559.3,976.4,1559.3z M1082.5,1564.9   c39-19.2,82.9-9,82.9-9s-19.1,41.4-58.1,60.6c-38.9,19.2-82.9,9-82.9,9S1043.6,1584.1,1082.5,1564.9z M1099.5,1697.7   c-42.4-8.5-71.4-43.6-71.4-43.6s40-21.3,82.4-12.7c42.5,8.6,71.4,43.6,71.4,43.6S1142,1706.2,1099.5,1697.7z M1225.5,1521.5   c33.3-28,78.4-28.6,78.4-28.6s-9,44.8-42.2,72.8c-33.4,28-78.4,28.6-78.4,28.6S1192.1,1549.6,1225.5,1521.5z M1272.9,1646.6   c-43.2,1.9-79.6-25.3-79.6-25.3s33.8-30.2,77.1-32.1c43.3-1.9,79.5,25.3,79.5,25.3S1316.1,1644.7,1272.9,1646.6z M1380.3,1436.6   c20.8-38.5,62.5-56,62.5-56s8,45-12.7,83.6c-20.8,38.5-62.5,56-62.5,56S1359.6,1475.1,1380.3,1436.6z M1470,1534.9   c-39.5,18-83.1,6.4-83.1,6.4s20.4-40.8,60-58.8c39.5-17.9,83.1-6.4,83.1-6.4S1509.5,1516.9,1470,1534.9z M1622.6,1358.9   c-28,33.5-72.3,42-72.3,42s1.2-45.7,29.2-79.2c28.1-33.5,72.4-42,72.4-42S1650.7,1325.5,1622.6,1358.9z M1632.9,1192.5   c0,0-10.4-44.5,8.4-84.1c18.6-39.6,59.4-59.3,59.4-59.3s10.4,44.5-8.4,84.1C1673.5,1172.8,1632.9,1192.5,1632.9,1192.5z" data-part-id="logo__item--logo_0__2"></path>
	<path fill="none" d="M993.4,188.1c-449.5,0-815.1,365.6-815.1,815.2c0,449.5,365.6,815.2,815.1,815.2   c449.5,0,815.2-365.7,815.2-815.2C1808.5,553.7,1442.9,188.1,993.4,188.1z M993.4,1766.6c-420.9,0-763.2-342.5-763.2-763.3   c0-420.9,342.4-763.3,763.2-763.3c420.9,0,763.3,342.4,763.3,763.3C1756.6,1424.1,1414.3,1766.6,993.4,1766.6z" data-part-id="logo__item--logo_0__3"></path>
	<path fill="#1A3142" d="M993.4,240c-420.9,0-763.2,342.4-763.2,763.3c0,420.9,342.4,763.3,763.2,763.3   c420.9,0,763.3-342.5,763.3-763.3C1756.6,582.4,1414.3,240,993.4,240z M993.4,1754.4c-414.2,0-751.2-336.9-751.2-751.1   c0-414.2,337-751.2,751.2-751.2c414.2,0,751.2,337,751.2,751.2C1744.6,1417.5,1407.6,1754.4,993.4,1754.4z" data-part-id="logo__item--logo_0__4"></path>
	<path fill="#7452c5" d="M898.8,896.1C857.5,877.2,788,858.5,663,856.9v429.9c139,1.8,221.5,25.7,266.5,50.3   c9.1-157.1-25.4-298.8-58.9-423C877.9,907,887.7,901,898.8,896.1z" data-part-id="logo__item--logo_0__5"></path>
	<path fill="#7452c5" d="M1084.1,920.1c-37.7,113.2-68,256.6-60,407.9c47.5-21.1,124.9-39.6,249.9-41.2V856.9   c-111,1.5-186.5,17.9-229,35.5C1061.4,898.8,1075.4,907.9,1084.1,920.1z" data-part-id="logo__item--logo_0__6"></path>
	<path fill="#7452c5" d="M1533.7,1002c0-307.8-249.5-557.3-557.2-557.3c-307.8,0-557.3,249.5-557.3,557.3   c0,307.8,249.5,557.3,557.3,557.3C1284.1,1559.3,1533.7,1309.8,1533.7,1002z M828.9,723.9c7.9-38.5,37.3-69.7,39.8-108.1   c11.1,20.2,12.4,34.8,13.6,55.9c35.3-43.3,72-101.2,64-154.2c0,0,67,21,94.1,123.7c16-14.2,14.5-43.5,6.6-60.9   c23.8,17.3,160.3,171.1-21.4,274c34.2-66.5,8.8-156.3-50.5-197.7c3.9,17.8-1,64.4-27.2,93.6c5.9-30.2-8.9-49.5-8.9-49.5   s-4.9,27.4-23.8,55c-17.2,25.2-29.2,52-6.7,98.7C837,814.1,818.1,776,828.9,723.9z M1357,1376h-21.5c-275.8,0-333.7,55-342.5,69   h-52.2c-8.1-14-64.8-69-342.9-69h-32V863h32c11.1,0,24-0.2,38,0v-42h5.4c167,0,251.7,32.9,294.3,60.1c21.2-3.9,44.1-6.4,65.9-4.1   c43.8-26.5,128.4-56,290.5-56h9.9v42.1c13-0.3,22.5-0.1,33.5-0.1h21.5V1376z" data-part-id="logo__item--logo_0__7"></path>
	<path fill="#7452c5" d="M1794.7,735c-29.1-89.4-1.4-208.6-55.6-283c-54.7-75.2-176.9-85.5-252.1-140.2   c-74.4-54.2-121.7-167.6-211.1-196.6c-86.3-28-190.7,35-286.4,35c-95.7,0-200.1-63-286.4-35c-89.4,29-136.7,142.4-211.1,196.6   c-75.2,54.7-197.5,65-252.1,140.2c-54.2,74.4-26.6,193.6-55.6,283c-28,86.3-121.3,166-121.3,261.7c0,95.7,93.3,175.4,121.3,261.7   c29.1,89.5,1.5,208.6,55.6,283c54.7,75.2,176.9,85.5,252.1,140.2c74.4,54.2,121.7,167.6,211.1,196.6c86.3,28,190.8-35,286.4-35   c95.6,0,200,63,286.4,35c89.4-29,136.7-142.4,211.1-196.6c75.3-54.7,197.4-65,252.1-140.2c54.2-74.4,26.5-193.6,55.6-283   c28.1-86.3,121.3-166,121.3-261.7C1916.1,901,1822.8,821.3,1794.7,735z M993.4,1818.5c-449.5,0-815.1-365.7-815.1-815.2   c0-449.5,365.6-815.2,815.1-815.2c449.5,0,815.2,365.6,815.2,815.2C1808.5,1452.8,1442.9,1818.5,993.4,1818.5z" data-part-id="logo__item--logo_0__8"></path>
	<path fill="#A3C552" d="M612.2,511.4c0,0,42,17,83.3,4c41.3-13.1,66.6-51.2,66.6-51.2s-42-17-83.3-4.1   C637.5,473.2,612.2,511.4,612.2,511.4z" data-part-id="logo__item--logo_0__9"></path>
	<path fill="#A3C552" d="M664.4,439.7c25.2-36,22.7-81.9,22.7-81.9s-43.4,12.2-68.7,48.1c-25.2,35.9-22.8,81.9-22.8,81.9   S639.1,475.5,664.4,439.7z" data-part-id="logo__item--logo_0__10"></path>
	<path fill="#A3C552" d="M474.7,625.9c0,0,43.9,10.5,82.9-8.6c39-19.1,58.3-60.7,58.3-60.7s-43.9-10.6-82.9,8.6   C494.1,584.4,474.7,625.9,474.7,625.9z" data-part-id="logo__item--logo_0__11"></path>
	<path fill="#A3C552" d="M515.8,547.1c19.8-39.3,10.7-84.4,10.7-84.4s-41.2,18.7-61,58c-19.8,39.3-10.7,84.4-10.7,84.4   S496,586.5,515.8,547.1z" data-part-id="logo__item--logo_0__12"></path>
	<path fill="#A3C552" d="M463,753.6c31.2-30.6,37-76.3,37-76.3s-44.9,4-76.1,34.6c-31.3,30.6-36.9,76.3-36.9,76.3   S431.7,784.3,463,753.6z" data-part-id="logo__item--logo_0__13"></path>
	<path fill="#A3C552" d="M401.9,700.2c6.9-43.7-15.7-83.6-15.7-83.6s-33.5,30.8-40.2,74.5c-6.8,43.7,15.6,83.7,15.6,83.7   S395.1,743.8,401.9,700.2z" data-part-id="logo__item--logo_0__14"></path>
	<path fill="#A3C552" d="M404.2,933.7c22.8-37.5,17.3-83.3,17.3-83.3s-42.5,15.3-65.4,52.8c-22.9,37.6-17.3,83.3-17.3,83.3   S381.4,971.3,404.2,933.7z" data-part-id="logo__item--logo_0__15"></path>
	<path fill="#A3C552" d="M311.2,979.9c0,0,24.9-38.4,21-82.4c-4-44-35.5-77-35.5-77s-25,38.3-20.9,82.4   C279.8,946.8,311.2,979.9,311.2,979.9z" data-part-id="logo__item--logo_0__16"></path>
	<path fill="#A3C552" d="M357.1,1101.1c-8.7,43.3,12.1,84.2,12.1,84.2s34.7-29.3,43.4-72.6c8.6-43.4-12-84.2-12-84.2   S365.7,1057.7,357.1,1101.1z" data-part-id="logo__item--logo_0__17"></path>
	<path fill="#A3C552" d="M332.5,1104.2c-18.7-39.9-59.4-59.7-59.4-59.7s-10.4,44.8,8.4,84.7c18.7,39.8,59.4,59.7,59.4,59.7   S351.2,1144,332.5,1104.2z" data-part-id="logo__item--logo_0__18"></path>
	<path fill="#A3C552" d="M473.7,1306.4c-2.4-44.1-32.7-78.3-32.7-78.3s-26.3,37.4-23.8,81.5c2.4,44.1,32.7,78.4,32.7,78.4   S476.1,1350.6,473.7,1306.4z" data-part-id="logo__item--logo_0__19"></path>
	<path fill="#A3C552" d="M321.9,1276.8c0,0,1.2,46,29.2,79.7c28,33.7,72.3,42.3,72.3,42.3s-1.2-46-29.2-79.8   C366.2,1285.4,321.9,1276.8,321.9,1276.8z" data-part-id="logo__item--logo_0__20"></path>
	<path fill="#A3C552" d="M530.9,1378.3c0,0-8,45.3,12.7,84.1c20.8,38.8,62.5,56.4,62.5,56.4s7.9-45.4-12.8-84.1   C572.6,1395.9,530.9,1378.3,530.9,1378.3z" data-part-id="logo__item--logo_0__21"></path>
	<path fill="#A3C552" d="M526.9,1480.9c-39.5-18.1-83.1-6.4-83.1-6.4s20.4,41,59.9,59.2c39.5,18.1,83.1,6.4,83.1,6.4   S566.4,1499.1,526.9,1480.9z" data-part-id="logo__item--logo_0__22"></path>
	<path fill="#A3C552" d="M748.2,1520.3c-33.3-28.2-78.4-28.8-78.4-28.8s9,45.2,42.3,73.3c33.4,28.3,78.5,28.8,78.5,28.8   S781.6,1548.5,748.2,1520.3z" data-part-id="logo__item--logo_0__23"></path>
	<path fill="#A3C552" d="M623.8,1613.9c0,0,33.8,30.4,77,32.3c43.2,1.9,79.6-25.4,79.6-25.4s-33.9-30.4-77.1-32.3   C660,1586.5,623.8,1613.9,623.8,1613.9z" data-part-id="logo__item--logo_0__24"></path>
	<path fill="#A3C552" d="M917.9,1563.9c-38.9-19.3-82.9-9-82.9-9s19.2,41.7,58.1,61c38.9,19.4,82.9,9.1,82.9,9.1   S956.9,1583.2,917.9,1563.9z" data-part-id="logo__item--logo_0__25"></path>
	<path fill="#A3C552" d="M890,1640.9c-42.5,8.6-71.4,43.9-71.4,43.9s39.9,21.4,82.4,12.8c42.5-8.5,71.4-43.9,71.4-43.9   S932.5,1632.4,890,1640.9z" data-part-id="logo__item--logo_0__26"></path>
	<path fill="#A3C552" d="M806.4,396.8c37-22.9,52.4-66.2,52.4-66.2s-44.7-6.2-81.7,16.7c-37,22.9-52.4,66.2-52.4,66.2   S769.3,419.7,806.4,396.8z" data-part-id="logo__item--logo_0__27"></path>
	<path fill="#A3C552" d="M1278.2,523.7c41.4,12.9,83.2-4,83.2-4s-25.2-37.9-66.6-50.9c-41.3-12.9-83.2,4-83.2,4   S1236.9,510.8,1278.2,523.7z" data-part-id="logo__item--logo_0__28"></path>
	<path fill="#A3C552" d="M1378.1,496.3c0,0,2.5-45.7-22.8-81.3c-25.2-35.6-68.7-47.8-68.7-47.8s-2.6,45.7,22.8,81.4   C1334.6,484.1,1378.1,496.3,1378.1,496.3z" data-part-id="logo__item--logo_0__29"></path>
	<path fill="#A3C552" d="M1416.1,624.9c39.1,19,82.9,8.6,82.9,8.6s-19.4-41.3-58.4-60.3c-39-19-82.9-8.6-82.9-8.6   S1377.1,605.9,1416.1,624.9z" data-part-id="logo__item--logo_0__30"></path>
	<path fill="#A3C552" d="M1518.9,612.8c0,0,9.1-44.8-10.6-83.9c-19.8-39-61-57.6-61-57.6s-9.2,44.8,10.6,83.8   C1477.7,594.3,1518.9,612.8,1518.9,612.8z" data-part-id="logo__item--logo_0__31"></path>
	<path fill="#A3C552" d="M1510.7,760.2c31.2,30.4,76.1,34.3,76.1,34.3s-5.7-45.4-37-75.8c-31.2-30.4-76.2-34.3-76.2-34.3   S1479.5,729.9,1510.7,760.2z" data-part-id="logo__item--logo_0__32"></path>
	<path fill="#A3C552" d="M1612.1,781.2c0,0,22.4-39.7,15.6-83c-6.8-43.3-40.3-74-40.3-74s-22.4,39.6-15.7,83   C1578.6,750.5,1612.1,781.2,1612.1,781.2z" data-part-id="logo__item--logo_0__33"></path>
	<path fill="#A3C552" d="M1617.6,908.8c-22.8-37.3-65.4-52.4-65.4-52.4s-5.5,45.4,17.3,82.7c22.8,37.3,65.3,52.4,65.3,52.4   S1640.4,946.1,1617.6,908.8z" data-part-id="logo__item--logo_0__34"></path>
	<path fill="#A3C552" d="M1698,908.4c4-43.7-20.9-81.8-20.9-81.8s-31.4,32.8-35.5,76.5c-4,43.7,21,81.9,21,81.9   S1694,952.1,1698,908.4z" data-part-id="logo__item--logo_0__35"></path>
	<path fill="#A3C552" d="M1573.2,1033.1c0,0-20.7,40.6-12.1,83.6c8.7,43,43.5,72.1,43.5,72.1s20.7-40.6,12.1-83.6   C1608,1062.3,1573.2,1033.1,1573.2,1033.1z" data-part-id="logo__item--logo_0__36"></path>
	<path fill="#A3C552" d="M1700.6,1049.1c0,0-40.7,19.7-59.4,59.3c-18.7,39.6-8.4,84.1-8.4,84.1s40.6-19.7,59.3-59.3   C1711,1093.6,1700.6,1049.1,1700.6,1049.1z" data-part-id="logo__item--logo_0__37"></path>
	<path fill="#A3C552" d="M1500,1309.2c-2.4,43.8,23.9,81,23.9,81s30.2-34,32.7-77.8c2.4-43.8-23.9-81-23.9-81   S1502.4,1265.4,1500,1309.2z" data-part-id="logo__item--logo_0__38"></path>
	<path fill="#A3C552" d="M1579.5,1321.7c-28,33.5-29.2,79.2-29.2,79.2s44.3-8.5,72.3-42c28.1-33.4,29.3-79.2,29.3-79.2   S1607.6,1288.3,1579.5,1321.7z" data-part-id="logo__item--logo_0__39"></path>
	<path fill="#A3C552" d="M1430.1,1464.1c20.7-38.5,12.7-83.6,12.7-83.6s-41.6,17.5-62.5,56c-20.8,38.5-12.8,83.5-12.8,83.5   S1409.3,1502.6,1430.1,1464.1z" data-part-id="logo__item--logo_0__40"></path>
	<path fill="#A3C552" d="M1446.8,1482.5c-39.5,18-60,58.8-60,58.8s43.6,11.6,83.1-6.4c39.5-18,59.9-58.8,59.9-58.8   S1486.3,1464.5,1446.8,1482.5z" data-part-id="logo__item--logo_0__41"></path>
	<path fill="#A3C552" d="M1303.9,1493c0,0-45,0.6-78.4,28.6c-33.4,28-42.3,72.8-42.3,72.8s45-0.5,78.4-28.6   C1294.9,1537.8,1303.9,1493,1303.9,1493z" data-part-id="logo__item--logo_0__42"></path>
	<path fill="#A3C552" d="M1270.5,1589.2c-43.3,1.9-77.1,32.1-77.1,32.1s36.3,27.2,79.6,25.3c43.2-1.9,77-32.1,77-32.1   S1313.7,1587.3,1270.5,1589.2z" data-part-id="logo__item--logo_0__43"></path>
	<path fill="#A3C552" d="M1167.4,406c37.1,22.7,81.7,16.6,81.7,16.6s-15.4-43-52.4-65.7c-37-22.7-81.7-16.6-81.7-16.6   S1130.4,383.3,1167.4,406z" data-part-id="logo__item--logo_0__44"></path>
	<path fill="#A3C552" d="M1107.3,1616.5c38.9-19.3,58.1-60.6,58.1-60.6s-43.9-10.2-82.9,9c-38.9,19.2-58,60.6-58,60.6   S1068.4,1635.8,1107.3,1616.5z" data-part-id="logo__item--logo_0__45"></path>
	<path fill="#A3C552" d="M1110.5,1641.4c-42.4-8.5-82.4,12.7-82.4,12.7s28.9,35.1,71.4,43.6c42.5,8.6,82.4-12.7,82.4-12.7   S1153,1649.9,1110.5,1641.4z" data-part-id="logo__item--logo_0__46"></path>
</g>

    </g>
</g></svg>